PathFileType	4	(X/Y/Z)	Kaydara	
DataRate	CameraRate	NumFrames	NumMarkers	Units	OrigDataRate	OrigDataStartFrame	OrigNumFrames	
60.00	60.00	4	74	mm	60.00	326	140	
Frame#	Time	Z_lasi			Z_rasi			Z_rpsi			Z_lpsi			Z_fneck			Z_fhead			Z_rhead			Z_lhead			Z_rshld			Z_relbtop			Z_relblow			Z_rwrext			Z_rwrtop			Z_rwrlow			Z_lshld			Z_lelbext			Z_lelblow			Z_lelbtop			Z_lwrext			Z_lwrtop			Z_lwrlow			Z_rtopleg			Z_ltopleg			Z_rkneefr			Z_rkneebk			Z_rkneeis			Z_lkneefr			Z_lknssbk			Z_lkneeis			Z_rankfr			Z_rankis			Z_rankbk			Z_lankfr			Z_lankbk			Z_lankis			N_lasi			N_rasi			N_rpsi			N_lpsi			N_fneck			N_bneck			N_fhead			N_rhead			N_lhead			N_rshld			N_relbtop			N_relbext			N_relblow			N_rwrext			N_rwrtop			N_rwrlow			N_lshld			N_lelbext			N_lelblow			N_lelbtop			N_lwrext			N_lwrtop			N_lwrlow			N_rtopleg			N_rkneefr			N_rkneebk			N_rkneeis			N_lkneefr			N_lknssbk			N_lkneeis			N_rankfr			N_rankis			N_rankbk			N_lankfr			N_lankbk			N_lankis			Z_relbext			Z_bneck			N_ltopleg			
		X1	Y1	Z1	X2	Y2	Z2	X3	Y3	Z3	X4	Y4	Z4	X5	Y5	Z5	X6	Y6	Z6	X7	Y7	Z7	X8	Y8	Z8	X9	Y9	Z9	X10	Y10	Z10	X11	Y11	Z11	X12	Y12	Z12	X13	Y13	Z13	X14	Y14	Z14	X15	Y15	Z15	X16	Y16	Z16	X17	Y17	Z17	X18	Y18	Z18	X19	Y19	Z19	X20	Y20	Z20	X21	Y21	Z21	X22	Y22	Z22	X23	Y23	Z23	X24	Y24	Z24	X25	Y25	Z25	X26	Y26	Z26	X27	Y27	Z27	X28	Y28	Z28	X29	Y29	Z29	X30	Y30	Z30	X31	Y31	Z31	X32	Y32	Z32	X33	Y33	Z33	X34	Y34	Z34	X35	Y35	Z35	X36	Y36	Z36	X37	Y37	Z37	X38	Y38	Z38	X39	Y39	Z39	X40	Y40	Z40	X41	Y41	Z41	X42	Y42	Z42	X43	Y43	Z43	X44	Y44	Z44	X45	Y45	Z45	X46	Y46	Z46	X47	Y47	Z47	X48	Y48	Z48	X49	Y49	Z49	X50	Y50	Z50	X51	Y51	Z51	X52	Y52	Z52	X53	Y53	Z53	X54	Y54	Z54	X55	Y55	Z55	X56	Y56	Z56	X57	Y57	Z57	X58	Y58	Z58	X59	Y59	Z59	X60	Y60	Z60	X61	Y61	Z61	X62	Y62	Z62	X63	Y63	Z63	X64	Y64	Z64	X65	Y65	Z65	X66	Y66	Z66	X67	Y67	Z67	X68	Y68	Z68	X69	Y69	Z69	X70	Y70	Z70	X71	Y71	Z71	X72	Y72	Z72	X73	Y73	Z73	X74	Y74	Z74	

106	5.417	-1671.49689	1018.08670	847.65221	-1490.46814	1019.82956	711.68747	-1357.66785	1071.88843	914.19037	-1565.50262	1074.02542	1029.28711	-1565.14679	1506.70364	768.17047	-1536.13678	1753.75900	734.42909	-1471.41968	1687.28668	884.76471	-1625.05463	1715.83542	875.13802	-1354.36966	1466.02631	745.99487	-1251.89941	1173.70094	691.75400	-1316.36749	1189.88159	654.39812	-1358.97614	985.62622	533.28796	-1372.96143	1022.20604	499.79069	-1415.02655	1034.28345	514.04491	-1736.01883	1458.02887	966.08551	-1737.57828	1095.69382	1026.83945	-1725.63171	1169.14452	971.65604	-1766.01944	1178.08777	1037.76573	-1840.27069	1002.47169	877.75070	-1866.39328	1041.20461	853.00972	-1829.39423	1053.83522	823.89221	-1334.40567	895.09804	749.50363	-1686.24207	900.43808	968.48778	-1446.55640	472.29668	621.53442	-1374.66705	504.15020	709.83047	-1481.32355	467.38487	730.66322	-1623.40500	443.82198	868.55865	-1642.04620	473.81287	971.32217	-1528.66623	458.47252	922.20535	-1386.69342	173.33555	653.55484	-1413.65326	171.84399	720.47501	-1336.33606	176.24722	698.08372	-1617.85187	127.01982	942.80739	-1532.93045	134.46283	987.36496	-1554.10492	133.13876	916.31142	-1440.32211	1005.70068	-227.56138	-1645.03708	1010.07591	-98.37060	-1723.32123	1073.52928	-279.08878	-1561.91528	1056.83960	-385.60543	-1541.47308	1480.93964	-184.82302	-1585.03387	1526.15448	-290.64220	-1558.28262	1656.48575	-99.20087	-1632.05902	1645.26108	-276.02652	-1502.62054	1639.81689	-278.61744	-1765.08041	1423.13461	-130.35378	-1837.53235	1129.99954	-84.31167	-1823.84918	1094.82033	-143.18913	-1764.33548	1132.18979	-79.88873	-1744.60037	890.57449	6.02851	-1742.36526	912.16064	45.30749	-1700.05188	930.78163	40.24533	-1413.25958	1407.47711	-382.54448	-1448.18954	1092.26303	-368.64784	-1360.79559	1120.88562	-380.74562	-1412.56165	1082.17323	-432.74162	-1320.49591	898.97461	-334.22935	-1298.08075	918.94485	-304.63995	-1332.21237	921.66054	-273.93377	-1742.75345	901.06155	-150.99421	-1675.10162	429.06006	-187.88410	-1756.79962	459.07406	-216.88074	-1659.38263	447.98256	-281.92755	-1417.89566	430.32219	-282.38108	-1409.42474	462.00359	-364.38694	-1520.11749	447.49954	-317.23215	-1695.23453	171.57261	-215.02415	-1687.11807	166.62827	-295.39988	-1752.18719	160.19756	-264.99325	-1432.09808	186.67612	-419.20265	-1498.68378	184.27513	-420.42526	-1470.50507	180.02399	-352.01035	-1338.50021	1159.11415	723.78983	-1626.26068	1587.80304	872.38235	-1444.40582	940.23636	-341.61381 
107	5.433	-1671.99478	1017.94891	845.44090	-1490.90195	1019.05754	709.35081	-1358.04077	1071.49361	911.75064	-1565.62576	1074.11163	1027.02446	-1565.87891	1506.09283	767.33589	-1537.34406	1753.11096	733.67126	-1473.02673	1686.70853	884.22958	-1626.60110	1715.11108	874.11682	-1354.71405	1466.37894	745.55115	-1248.77754	1174.12697	695.15968	-1313.96942	1188.09082	657.68150	-1351.72272	979.93263	541.81149	-1366.72623	1015.11406	507.38396	-1409.13345	1026.39610	521.56315	-1736.96045	1457.15576	964.61983	-1737.79221	1095.35027	1024.12148	-1725.70724	1168.86482	967.98607	-1766.37177	1177.68021	1035.99960	-1836.41846	1007.11143	869.51172	-1861.64658	1046.67175	845.21416	-1823.59726	1060.17975	817.63908	-1334.63181	894.44664	747.94823	-1686.70212	901.01273	966.78680	-1444.75800	472.28909	619.44878	-1373.43658	502.25292	708.78281	-1480.52505	465.90965	728.02864	-1622.04193	444.42200	871.47110	-1640.55466	474.40990	974.06418	-1526.89331	459.56367	925.39230	-1387.99362	172.44564	645.35141	-1415.97107	169.79834	711.86073	-1338.27515	173.94152	690.42747	-1617.65305	127.38327	943.42773	-1532.61078	134.35712	987.86034	-1553.74603	133.44974	917.09465	-1434.50623	1004.48441	-228.27459	-1639.16306	1009.67598	-98.94213	-1717.95334	1072.58522	-280.18639	-1556.02539	1056.09634	-386.44321	-1536.84387	1480.27679	-187.07432	-1580.15015	1525.17334	-292.99589	-1554.08615	1655.97595	-101.78287	-1627.41379	1644.27689	-278.79341	-1498.06137	1639.03137	-281.26448	-1761.94855	1421.91116	-134.34492	-1835.41428	1128.43048	-94.49178	-1821.51459	1095.03334	-154.41247	-1762.64114	1129.19960	-88.96619	-1750.64804	883.20564	-11.83968	-1749.05289	903.41064	29.05898	-1705.47546	920.68108	24.55773	-1408.13309	1406.69617	-384.33453	-1442.46170	1091.40671	-368.57986	-1355.20859	1120.03143	-380.22274	-1406.29669	1080.99030	-432.52758	-1315.24094	898.49915	-331.69109	-1293.07068	918.96736	-301.87628	-1327.91840	921.67542	-271.35527	-1737.83585	900.86029	-152.46956	-1675.63049	430.35633	-193.81447	-1757.22198	459.51923	-222.41537	-1659.78500	448.34389	-287.79318	-1416.21353	428.42884	-283.65730	-1407.81769	460.32463	-365.85342	-1518.12637	446.39210	-318.03225	-1695.88181	172.32468	-216.56912	-1687.54501	166.33308	-296.84517	-1752.60986	160.63471	-267.06015	-1431.82816	185.37838	-420.70042	-1498.23853	183.19126	-420.96512	-1469.67712	178.81979	-352.90047	-1335.82397	1158.65150	727.06810	-1626.99265	1587.19223	871.54785	-1439.27887	939.23622	-342.20810 
108	5.450	-1672.41852	1017.72675	842.96524	-1491.64352	1018.17650	706.00174	-1358.19260	1070.47256	908.91602	-1565.74982	1073.85696	1024.60449	-1566.26587	1505.04868	766.15067	-1538.18634	1752.15256	732.42378	-1474.21783	1685.72998	883.12805	-1627.79541	1713.96957	872.64488	-1354.84528	1466.31805	744.45625	-1245.69443	1174.15985	698.15247	-1311.25946	1186.43425	660.70442	-1344.76883	974.28452	549.71809	-1360.69305	1008.31451	514.45595	-1403.73489	1019.89861	527.90264	-1737.70950	1455.96298	962.66235	-1737.82959	1094.62387	1022.30583	-1725.03601	1168.28598	966.61949	-1767.11792	1176.80641	1033.73497	-1832.84424	1011.72882	860.93224	-1857.07428	1052.28493	837.18124	-1818.17413	1066.46904	811.22551	-1334.83826	893.48770	746.19576	-1687.29263	901.50475	964.75975	-1442.67776	471.84822	617.52247	-1371.90887	499.87549	707.94701	-1479.80362	464.02439	725.69496	-1620.54092	444.90673	874.26193	-1638.80753	474.86561	976.74927	-1525.48538	460.08995	928.10822	-1389.41040	171.28767	637.55611	-1418.39081	167.39008	703.47244	-1340.25635	171.18502	683.18153	-1617.44568	127.68616	944.03168	-1532.39349	134.19238	988.48267	-1553.54736	133.77325	917.55600	-1428.19794	1003.25432	-228.51694	-1633.35266	1008.57788	-100.59639	-1712.32986	1071.59447	-281.64965	-1549.77631	1055.24368	-387.47646	-1531.75110	1479.52469	-189.31707	-1575.07935	1524.18396	-295.34018	-1549.66965	1655.37918	-104.40424	-1622.52106	1643.26248	-281.58712	-1493.20816	1638.29956	-283.50651	-1758.65845	1420.55054	-138.57924	-1832.60239	1126.77345	-104.34885	-1817.80136	1094.75479	-164.94843	-1760.22827	1126.14983	-97.54557	-1756.24207	876.57295	-29.12170	-1754.40201	895.08179	12.60300	-1710.30838	911.12740	9.11233	-1402.53479	1405.90744	-385.89733	-1436.95007	1090.68962	-369.41509	-1349.16550	1119.16229	-379.81560	-1399.89517	1079.87984	-432.53300	-1309.91257	897.78847	-329.53842	-1288.08990	918.52081	-299.51502	-1323.54248	921.37955	-269.14913	-1732.98645	900.45235	-154.48870	-1675.46143	431.05701	-199.74947	-1756.97983	459.90814	-228.03453	-1659.50226	448.59657	-293.59104	-1413.75488	426.59962	-286.11927	-1406.52924	458.74874	-368.17036	-1515.92773	445.59727	-318.74739	-1696.28616	172.99280	-218.14379	-1687.48642	165.87269	-298.31831	-1752.29248	160.79885	-268.19214	-1432.34772	184.20788	-422.62856	-1498.80295	182.34383	-421.99631	-1469.22623	177.71004	-354.47746	-1333.01132	1158.05946	730.00977	-1627.37961	1586.14807	870.36255	-1433.77060	937.81120	-342.94567 
109	5.467	-1672.72110	1017.54112	840.16090	-1490.48019	1016.19743	706.21407	-1358.06168	1069.17175	906.03798	-1565.67413	1073.36693	1021.91109	-1566.33881	1503.60260	764.78745	-1538.57925	1750.91522	730.68344	-1475.09491	1684.34738	881.50940	-1628.59772	1712.59491	870.53185	-1354.68613	1466.00555	743.03001	-1243.24257	1173.92555	701.16058	-1308.44513	1184.68887	663.23479	-1338.04642	969.09256	556.98559	-1354.86847	1001.84860	520.98381	-1397.43805	1011.77025	535.27233	-1738.24768	1454.24896	960.48500	-1737.80197	1093.70438	1021.15067	-1723.80783	1167.39578	967.05376	-1768.29086	1175.85754	1030.99037	-1829.42078	1016.56929	852.16393	-1852.58514	1058.00659	828.83987	-1812.74078	1072.63733	804.72046	-1335.00641	891.79443	744.35120	-1688.30658	901.94206	962.54654	-1440.63339	470.81169	615.92567	-1370.55817	497.40334	707.49115	-1479.05273	461.92863	723.54454	-1619.54071	445.42458	877.36908	-1637.54730	475.51903	979.70726	-1524.40155	460.78815	930.61226	-1390.82748	169.80038	630.09357	-1420.84671	164.84566	695.53848	-1342.34467	168.13992	676.34529	-1617.37457	128.43493	944.92188	-1532.22900	134.03709	989.13300	-1553.31268	134.09124	918.39836	-1425.11093	1000.63736	-232.05097	-1627.69989	1007.50336	-102.48211	-1706.34247	1070.88219	-283.39045	-1543.17551	1054.38705	-388.89511	-1526.43799	1478.79501	-191.65440	-1569.59167	1523.18054	-297.57946	-1545.12238	1654.87946	-106.88495	-1617.54425	1642.28928	-284.21917	-1487.95914	1637.64328	-285.80740	-1754.91852	1419.00803	-143.03238	-1829.05319	1125.20981	-113.78267	-1813.23944	1094.50462	-174.71405	-1757.05078	1123.09425	-105.59943	-1761.47522	870.70068	-45.63655	-1759.29962	887.52716	-3.15749	-1714.52972	902.13692	-6.19126	-1396.48010	1405.16022	-387.21615	-1430.57892	1089.83765	-369.82342	-1342.87598	1118.29697	-379.08943	-1392.74048	1078.88100	-432.44606	-1304.50043	897.02103	-327.92976	-1282.95822	917.83691	-297.61768	-1318.81638	920.75104	-267.62402	-1727.93640	899.72221	-157.15605	-1674.29474	431.23592	-205.33867	-1755.96100	460.07072	-233.28541	-1658.01025	448.53485	-298.85691	-1411.91269	424.87938	-288.92969	-1405.81238	457.27108	-371.06331	-1514.06342	444.65252	-321.07624	-1696.34705	173.47996	-219.69706	-1687.06558	165.37407	-299.45230	-1752.16568	161.49975	-270.21887	-1431.90643	182.61793	-423.40279	-1498.35571	180.86641	-421.99692	-1468.60886	176.80870	-354.49226	-1330.46188	1157.28943	732.71286	-1627.45270	1584.70200	868.99933	-1427.69638	937.05826	-344.06120 
